<svg width="358" height="113" viewBox="0 0 358 113" fill="none" xmlns="http://www.w3.org/2000/svg">
<path d="M0 104.178L14.9564 95.5831C29.8599 87.0536 59.7727 69.8642 89.6326 65.7622C119.492 61.6602 149.405 70.5153 179.159 82.5609C208.966 94.6064 238.667 109.842 268.473 112.186C298.227 114.596 328.14 104.178 343.044 98.9689L358 93.76V0H343.044C328.14 0 298.227 0 268.473 0C238.667 0 208.966 0 179.159 0C149.405 0 119.492 0 89.6326 0C59.7727 0 29.8599 0 14.9564 0H0V104.178Z" fill="#D90547"/>
</svg>
