<svg id="visual" viewBox="0 0 675 900" width="675" height="900" xmlns="http://www.w3.org/2000/svg" xmlns:xlink="http://www.w3.org/1999/xlink" version="1.1"><path d="M0 160L28.2 146.8C56.3 133.7 112.7 107.3 169 101C225.3 94.7 281.7 108.3 337.8 126.8C394 145.3 450 168.7 506.2 172.3C562.3 176 618.7 160 646.8 152L675 144L675 0L646.8 0C618.7 0 562.3 0 506.2 0C450 0 394 0 337.8 0C281.7 0 225.3 0 169 0C112.7 0 56.3 0 28.2 0L0 0Z" fill="#D90547" stroke-linecap="round" stroke-linejoin="miter"></path></svg>