<svg width="1439" height="2029" viewBox="0 0 1439 2029" fill="none" xmlns="http://www.w3.org/2000/svg">
<g clip-path="url(#clip0_50_119)">
<path d="M0 2029H1440V0H0V2029Z" fill="#212428"/>
<path d="M-6.05583e-05 1230.08C120.8 1325.82 241.6 1421.57 402.667 1476.31C563.733 1530.84 765.333 1544.36 873.067 1629.54C980.533 1714.72 994.4 1871.96 1008 2029H-6.05583e-05V1230.08Z" fill="#D90547"/>
<path d="M1440 798.919C1257.87 780.742 1075.73 762.566 936 691.973C796.267 621.17 699.467 498.162 622.4 374.097C545.6 250.032 488.8 125.122 432 -2.47955e-05H1440V798.919Z" fill="#D90547"/>
</g>
<defs>
<clipPath id="clip0_50_119">
<rect x="1440" y="2029" width="1440" height="2029" rx="200" transform="rotate(180 1440 2029)" fill="white"/>
</clipPath>
</defs>
</svg>
