<svg id="visual" viewBox="0 0 540 960" width="540" height="960" xmlns="http://www.w3.org/2000/svg" xmlns:xlink="http://www.w3.org/1999/xlink" version="1.1"><rect x="0" y="0" width="540" height="960" fill="#212428"></rect><defs><linearGradient id="grad1_0" x1="0%" y1="0%" x2="100%" y2="100%"><stop offset="30%" stop-color="#212428" stop-opacity="1"></stop><stop offset="70%" stop-color="#212428" stop-opacity="1"></stop></linearGradient></defs><defs><linearGradient id="grad2_0" x1="0%" y1="0%" x2="100%" y2="100%"><stop offset="30%" stop-color="#212428" stop-opacity="1"></stop><stop offset="70%" stop-color="#212428" stop-opacity="1"></stop></linearGradient></defs><g transform="translate(540, 0)"><path d="M0 378C-45.3 332.7 -90.6 287.4 -151 261.5C-211.4 235.7 -287 229.3 -327.4 189C-367.7 148.7 -372.9 74.3 -378 0L0 0Z" fill="#D90547"></path></g><g transform="translate(0, 960)"><path d="M0 -378C68.3 -369.4 136.6 -360.8 189 -327.4C241.4 -293.9 277.7 -235.7 306.6 -177C335.4 -118.3 356.7 -59.2 378 0L0 0Z" fill="#D90547"></path></g></svg>